<?xml version="1.0" standalone="no"?><!DOCTYPE svg PUBLIC "-//W3C//DTD SVG 1.1//EN" "http://www.w3.org/Graphics/SVG/1.1/DTD/svg11.dtd"><svg t="1527309769942" class="icon" style="" viewBox="0 0 1024 1024" version="1.1" xmlns="http://www.w3.org/2000/svg" p-id="6280" xmlns:xlink="http://www.w3.org/1999/xlink" width="200" height="200"><defs><style type="text/css"></style></defs><path d="M296.214501 576.244961c-155.163144-72.186039-181.979633-216.660451-154.063059-312.562275 31.759197-109.10796 129.794673-184.256553 244.674242-184.256553 115.038185 0 214.409114 75.921211 245.155209 187.295858 34.128217 123.629081-16.951541 227.129166-154.344476 309.66112 64.352411 17.739509 120.671643 47.288303 167.765512 92.719252 70.952921 68.450867 110.760646 151.868006 116.849488 250.44585 0.757268 12.223735 10.120781 30.746095-11.190166 35.054335-2.133653 0.429801-11.952551-21.351881-12.894019-33.248149-9.690981-122.713196-67.294499-216.358567-171.224384-280.680278C343.912137 502.63137 45.18535 662.440454 34.992935 924.572788c-0.19955 5.101324 1.023335 10.908749-1.013101 15.140239-2.936971 6.104192-8.248079 11.067366-12.546085 16.516624-3.847739-6.329326-11.09295-12.684235-11.036666-18.977744 0.762384-89.301314 30.955879-168.103213 87.853295-236.58478C149.872503 638.535352 215.713866 598.297826 296.214501 576.244961zM157.143297 333.939739c-0.414451 127.318203 100.992915 230.823405 226.837516 231.519272 127.881037 0.711218 231.273672-101.003148 232.742158-228.960935 1.453135-126.668386-102.768401-232.972408-228.889302-233.458492C260.812232 102.5535 157.562864 205.900085 157.143297 333.939739z" p-id="6281"></path><path d="M738.556099 576.040294c76.192395 21.403048 140.022905 58.340319 190.457962 116.15362 59.711587 68.44575 93.205337 147.759316 94.520322 239.271034 0.117684 8.166212-6.574926 16.429641-10.110548 24.647019-4.298006-7.992245-11.799051-15.73889-12.423285-24.007435-10.739899-141.849558-77.35388-247.411662-206.524319-308.018668-39.009524-18.302343-84.614441-22.574766-127.226103-33.150932-2.409954-0.598651-5.577175 0.818668-7.567561-0.2456-7.987128-4.257073-15.651906-9.117913-23.434368-13.758737 7.541978-3.832389 14.899755-10.550582 22.651517-11.036666 61.456373-3.847739 114.480468-26.576006 155.992045-71.832989 63.656543-69.402568 81.948653-150.680937 49.283806-239.071484-33.826333-91.547534-103.448918-140.442472-199.934043-151.647989-3.371888-0.393984-7.516394 0.905651-10.069615-0.629351-5.674392-3.423055-10.565932-8.145745-15.779823-12.336301 5.669275-3.658422 12.274901-11.379483 16.864558-10.325448 38.53879 8.836496 80.321551 12.494918 114.286034 30.572128 88.277979 46.976185 134.466197 125.251067 133.596362 225.113196-0.895418 102.783751-49.89269 179.90738-141.880258 228.188318C754.576405 567.434048 747.934962 571.03107 738.556099 576.040294z" p-id="6282"></path></svg>