<?xml version="1.0" standalone="no"?><!DOCTYPE svg PUBLIC "-//W3C//DTD SVG 1.1//EN" "http://www.w3.org/Graphics/SVG/1.1/DTD/svg11.dtd"><svg t="1527303312697" class="icon" style="" viewBox="0 0 1024 1024" version="1.1" xmlns="http://www.w3.org/2000/svg" p-id="4588" xmlns:xlink="http://www.w3.org/1999/xlink" width="200" height="200"><defs><style type="text/css"></style></defs><path d="M815.977 678.469c-60.676-60.67000000000001-136.218-100.988-218.449-117.593 107.685-34.288 185.9-135.277 185.9-254.209C783.428 159.606 663.821 40 516.761 40s-266.66 119.606-266.66 266.667c0 117.323 76.208 217.24 181.747 252.732-84.913 15.675999999999998-163.134 56.654-225.54499999999996 119.07C124.87 759.902 80 868.123 80 983.309h53.574c0-208.136 169.426-377.563 377.563-377.563 208.136 0 377.563 169.427 377.563 377.563h53.574c-0.001-115.186-44.87-223.407-126.29700000000001-304.8399999999999zM303.675 306.667c0-117.461 95.625-213.092 213.085-213.092 117.462 0 213.094 95.494 213.094 213.092 0 117.45999999999998-95.632 213.08699999999996-213.094 213.08699999999996-117.45999999999998 0-213.085-95.627-213.085-213.08699999999996z m0 0" p-id="4589"></path></svg>